<svg viewBox="0 0 200 200" xmlns="http://www.w3.org/2000/svg" aria-hidden="true">
  <defs>
    <linearGradient id="gearFill" x1="0" x2="1">
      <stop offset="0%" stop-color="#d94b2b" />
      <stop offset="100%" stop-color="#f2a14e" />
    </linearGradient>
  </defs>
  <g>
    <circle cx="100" cy="100" r="70" fill="url(#gearFill)" />
    <circle cx="100" cy="100" r="40" fill="#fff8ef" />
    <rect x="92" y="10" width="16" height="28" rx="6" fill="#c03a1b" transform="rotate(0 100 100)" />
    <rect x="92" y="10" width="16" height="28" rx="6" fill="#c03a1b" transform="rotate(30 100 100)" />
    <rect x="92" y="10" width="16" height="28" rx="6" fill="#c03a1b" transform="rotate(60 100 100)" />
    <rect x="92" y="10" width="16" height="28" rx="6" fill="#c03a1b" transform="rotate(90 100 100)" />
    <rect x="92" y="10" width="16" height="28" rx="6" fill="#c03a1b" transform="rotate(120 100 100)" />
    <rect x="92" y="10" width="16" height="28" rx="6" fill="#c03a1b" transform="rotate(150 100 100)" />
    <rect x="92" y="10" width="16" height="28" rx="6" fill="#c03a1b" transform="rotate(180 100 100)" />
    <rect x="92" y="10" width="16" height="28" rx="6" fill="#c03a1b" transform="rotate(210 100 100)" />
    <rect x="92" y="10" width="16" height="28" rx="6" fill="#c03a1b" transform="rotate(240 100 100)" />
    <rect x="92" y="10" width="16" height="28" rx="6" fill="#c03a1b" transform="rotate(270 100 100)" />
    <rect x="92" y="10" width="16" height="28" rx="6" fill="#c03a1b" transform="rotate(300 100 100)" />
    <rect x="92" y="10" width="16" height="28" rx="6" fill="#c03a1b" transform="rotate(330 100 100)" />
  </g>
</svg>
